<?xml version="1.0" standalone="no"?>
<!DOCTYPE svg PUBLIC "-//W3C//DTD SVG 20010904//EN"
 "http://www.w3.org/TR/2001/REC-SVG-20010904/DTD/svg10.dtd">
<svg version="1.0" xmlns="http://www.w3.org/2000/svg"
 width="300.000000pt" height="300.000000pt" viewBox="0 0 300.000000 300.000000"
 preserveAspectRatio="xMidYMid meet">
<metadata>
Created by potrace 1.10, written by Peter Selinger 2001-2011
</metadata>
<g transform="translate(0.000000,300.000000) scale(0.100000,-0.100000)"
fill="#000000" stroke="none">
<path d="M1662 2429 c-31 -29 -34 -30 -51 -15 -22 20 -60 21 -96 2 -26 -14
-29 -13 -48 11 -18 23 -25 25 -78 21 -44 -3 -65 -10 -84 -28 -23 -22 -26 -22
-43 -7 -10 10 -22 17 -25 17 -4 0 -33 -26 -64 -57 -51 -50 -62 -57 -93 -54
-19 1 -39 7 -44 11 -14 14 -46 -8 -46 -30 0 -17 -3 -18 -27 -9 -24 9 -30 7
-43 -11 -8 -11 -27 -37 -43 -57 -16 -22 -25 -43 -22 -54 4 -12 -1 -20 -17 -25
-12 -4 -24 -2 -25 3 -6 16 -52 2 -68 -20 l-15 -21 -29 22 c-17 12 -42 22 -55
22 -25 0 -32 -11 -39 -61 -6 -35 -19 -41 -43 -18 -19 18 -26 20 -39 9 -8 -7
-15 -18 -15 -26 0 -17 33 -88 43 -92 4 -2 7 -10 7 -18 0 -8 4 -14 10 -14 5 0
17 -15 26 -32 29 -56 96 -139 124 -153 22 -11 31 -12 43 -2 29 22 27 34 -25
146 -16 35 -27 65 -24 68 2 2 18 -3 36 -12 30 -15 33 -15 52 2 15 14 19 27 16
61 l-3 44 44 -5 c43 -5 47 -3 89 39 39 40 47 44 76 39 37 -7 50 4 60 51 6 28
12 32 52 38 24 3 54 12 67 20 12 8 47 19 77 24 30 5 62 11 70 13 23 6 18 -31
-10 -74 -18 -26 -37 -41 -65 -49 -22 -7 -57 -22 -77 -35 -21 -13 -40 -23 -43
-23 -2 0 -28 -15 -57 -34 -55 -35 -131 -110 -163 -161 -10 -17 -26 -39 -36
-50 -9 -11 -34 -65 -55 -120 -35 -94 -38 -107 -39 -220 -2 -123 -1 -133 35
-244 48 -154 181 -314 320 -386 41 -21 77 -41 80 -45 9 -12 165 -40 230 -41
209 -4 383 64 525 207 84 83 139 175 180 303 34 104 23 363 -16 406 -5 5 -9
16 -9 25 0 37 -79 166 -147 239 -61 66 -86 85 -175 129 -121 61 -184 79 -291
83 -43 2 -81 7 -84 12 -3 4 1 21 7 38 12 27 16 29 66 29 29 0 64 -5 78 -11 20
-10 30 -9 49 4 42 27 107 12 162 -39 26 -24 53 -44 60 -44 7 0 15 -4 17 -10 4
-12 44 -15 80 -5 23 6 28 4 33 -18 4 -14 2 -34 -4 -45 -16 -29 -14 -57 5 -73
13 -10 29 -10 92 0 85 15 132 34 132 56 0 15 -18 29 -37 30 -19 0 -17 19 5 33
16 10 27 8 76 -19 32 -16 64 -28 72 -25 21 8 17 38 -10 67 -17 18 -24 37 -23
60 l2 34 -55 3 c-137 8 -125 11 -122 -25 2 -28 -1 -33 -21 -33 -16 0 -26 9
-35 33 -24 58 -28 62 -65 60 -30 -2 -40 3 -58 28 -23 32 -23 32 -120 13 -33
-6 -93 42 -104 84 -6 24 -21 41 -35 42 -3 0 -20 -14 -38 -31z m52 -1 c-4 -7
-17 -26 -30 -43 -12 -16 -27 -41 -34 -55 -12 -23 -10 -22 24 8 48 42 70 43 61
2 -7 -31 0 -36 25 -20 11 7 19 4 32 -12 16 -21 17 -21 55 -5 57 25 93 26 93 3
0 -21 -26 -38 -62 -41 -47 -4 -52 -35 -6 -35 38 0 121 25 156 48 14 9 22 10
22 3 0 -6 -21 -25 -47 -42 -27 -17 -40 -28 -30 -25 44 14 68 18 82 12 14 -5
14 -9 1 -35 -8 -15 -12 -31 -9 -35 10 -10 74 5 117 27 38 19 39 20 20 34 -10
8 -26 18 -34 23 -8 5 -12 12 -7 16 4 4 23 -4 44 -19 34 -24 38 -25 64 -11 32
16 59 18 59 5 0 -5 -13 -12 -30 -16 -16 -4 -30 -10 -30 -14 0 -4 23 -24 50
-44 28 -21 50 -42 50 -48 0 -12 -9 -7 -77 44 l-52 39 -70 -42 c-79 -45 -129
-85 -120 -94 3 -4 45 3 94 14 79 19 109 20 92 4 -10 -10 -188 -44 -198 -38
-18 11 -8 33 33 69 36 33 38 37 16 32 -34 -9 -54 13 -39 42 6 11 11 22 11 25
0 13 -33 5 -79 -19 -58 -29 -72 -22 -34 17 l28 29 -28 -10 c-65 -25 -120 -4
-98 37 9 18 8 19 -11 14 -14 -3 -26 1 -35 14 -11 15 -17 17 -33 6 -34 -21 -43
-15 -37 25 l6 37 -49 -49 c-52 -51 -71 -53 -53 -6 l10 29 -35 -25 c-45 -30
-86 -28 -90 5 -3 20 -6 19 -38 -19 -41 -50 -50 -64 -58 -104 l-6 -30 97 -1
c308 -3 569 -200 647 -490 107 -394 -148 -782 -555 -845 -229 -35 -494 79
-633 274 -259 365 -98 877 322 1022 60 21 70 29 95 71 20 34 57 162 57 200 0
1 -25 -24 -55 -54 -51 -51 -56 -54 -73 -39 -16 15 -19 15 -30 -4 -16 -25 -34
-20 -43 12 -6 23 -7 22 -25 -14 -13 -27 -23 -37 -35 -34 -10 3 -20 -1 -23 -9
-8 -22 -34 -16 -52 11 -9 14 -19 23 -22 20 -3 -2 -8 -33 -11 -67 -7 -68 -25
-87 -35 -36 l-7 33 -12 -24 c-16 -33 -37 -38 -44 -11 -8 28 -23 7 -23 -33 0
-15 -7 -30 -15 -33 -8 -4 -15 -12 -15 -19 0 -24 -39 -23 -85 1 l-45 24 0 -25
c0 -15 5 -46 11 -71 9 -33 9 -48 1 -56 -16 -16 -41 9 -94 90 l-43 66 -3 -32
c-4 -39 18 -107 70 -220 55 -122 49 -147 -17 -69 -47 54 -188 268 -181 274 9
10 22 -6 85 -106 35 -55 77 -115 93 -133 l29 -33 -25 52 c-48 98 -76 185 -76
235 0 41 3 49 17 46 9 -2 32 -23 50 -48 58 -77 85 -107 78 -85 -4 11 -9 46
-12 78 -7 68 0 71 72 31 57 -32 69 -22 50 43 -7 23 -11 43 -9 43 2 0 6 0 9 0
15 0 45 44 45 66 0 42 24 22 32 -26 4 -24 12 -48 17 -53 12 -12 31 53 31 106
0 20 5 37 10 37 6 0 10 -26 11 -57 0 -59 10 -55 23 10 8 35 29 35 54 0 l20
-28 26 58 c18 42 30 57 45 57 14 0 23 9 27 25 12 47 24 25 18 -30 -8 -64 7
-74 34 -24 27 50 72 99 92 99 10 0 23 -7 30 -15 12 -14 15 -14 30 0 25 23 29
10 14 -58 -17 -79 -17 -86 2 -62 39 52 108 115 126 115 31 0 19 -41 -19 -65
-36 -22 -43 -45 -15 -45 26 0 92 50 131 99 30 37 62 58 45 29z"/>
<path d="M1336 2379 c-14 -17 -26 -42 -26 -57 0 -26 1 -25 44 17 25 25 42 50
39 57 -8 22 -29 16 -57 -17z"/>
<path d="M1179 2313 c-15 -41 -5 -48 14 -9 9 20 12 36 7 36 -6 0 -15 -12 -21
-27z"/>
<path d="M910 2164 c0 -21 4 -33 10 -29 6 3 10 19 10 36 0 16 -4 29 -10 29 -5
0 -10 -16 -10 -36z"/>
<path d="M1413 2133 c-21 -4 -41 -38 -29 -50 3 -4 16 3 29 14 12 11 31 25 42
31 20 11 20 11 0 10 -11 0 -30 -3 -42 -5z"/>
<path d="M1454 2111 c-47 -29 -47 -37 -3 -51 36 -12 46 -12 87 4 26 10 59 21
75 23 38 7 34 18 -12 31 -56 17 -112 15 -147 -7z"/>
<path d="M1622 2074 c-69 -18 -93 -31 -72 -37 60 -20 117 -42 128 -50 9 -7 19
-4 35 10 12 11 29 22 36 25 10 3 0 15 -30 35 -44 30 -44 30 -97 17z m44 -33
c-4 -5 4 -7 16 -4 18 5 21 3 11 -7 -7 -8 -22 -10 -39 -6 -22 6 -25 9 -13 17
18 11 32 12 25 0z"/>
<path d="M1710 2086 c0 -7 81 -59 85 -54 3 3 -13 17 -35 32 -38 25 -50 30 -50
22z"/>
<path d="M1229 2060 l-24 -19 35 9 c19 6 50 10 67 10 18 0 33 5 33 10 0 19
-86 11 -111 -10z"/>
<path d="M1770 2077 c0 -6 75 -57 84 -57 4 0 4 5 1 10 -7 11 -85 53 -85 47z"/>
<path d="M1157 2044 c-22 -14 -36 -28 -33 -31 5 -5 86 45 86 53 0 9 -17 1 -53
-22z"/>
<path d="M1264 2039 c-83 -14 -101 -25 -149 -91 l-45 -62 59 -12 c33 -7 68
-17 80 -23 11 -6 28 -11 38 -11 25 0 83 69 83 99 0 14 9 45 20 69 l19 42 -27
-1 c-15 -1 -50 -5 -78 -10z m51 -64 c-13 -81 -56 -113 -128 -95 -72 19 -70 17
-52 48 29 49 108 92 163 89 22 -1 23 -5 17 -42z"/>
<path d="M1366 2011 c-9 -23 -19 -62 -22 -88 -3 -26 -7 -49 -9 -53 -2 -3 70
-5 161 -5 192 0 197 4 106 76 -106 85 -105 85 -149 53 -21 -15 -50 -39 -65
-53 -15 -13 -31 -21 -35 -18 -7 8 44 56 90 84 29 19 35 33 13 33 -7 0 -27 3
-43 6 -28 5 -31 3 -47 -35z m167 -47 c18 -8 42 -28 55 -44 l22 -29 -110 -3
c-97 -3 -110 -1 -110 14 0 18 75 78 98 78 8 0 28 -7 45 -16z"/>
<path d="M1540 2012 c13 -9 48 -36 77 -60 47 -38 53 -41 55 -23 0 12 1 26 2
32 1 7 -30 24 -69 40 -79 32 -101 36 -65 11z"/>
<path d="M1760 2013 c-8 -3 -23 -12 -32 -21 -16 -14 -13 -18 49 -59 50 -32 72
-42 86 -36 16 7 12 15 -35 65 -34 36 -58 55 -68 51z"/>
<path d="M1847 1965 c43 -49 73 -69 73 -47 0 13 -95 102 -108 102 -7 0 8 -25
35 -55z"/>
<path d="M1103 1985 c-18 -12 -59 -93 -51 -100 2 -1 20 24 40 56 21 33 36 59
35 59 -1 0 -12 -7 -24 -15z"/>
<path d="M1890 1975 c12 -13 26 -22 31 -20 4 3 10 -4 14 -15 3 -11 13 -20 21
-20 22 0 17 16 -11 34 -14 9 -25 13 -25 9 0 -4 -7 3 -16 15 -8 12 -20 22 -26
22 -6 0 -1 -11 12 -25z"/>
<path d="M1001 1903 c-28 -31 -51 -60 -51 -64 0 -13 89 37 90 51 0 8 7 27 14
43 23 43 2 32 -53 -30z"/>
<path d="M1685 1930 c-7 -33 17 -75 48 -84 15 -4 87 28 87 39 0 5 -116 75
-123 75 -3 0 -8 -13 -12 -30z"/>
<path d="M1915 1902 c-7 -4 -1 -25 18 -57 17 -30 26 -40 23 -25 -3 14 -6 32
-6 41 0 22 -23 50 -35 41z"/>
<path d="M1972 1876 c29 -44 40 -46 36 -3 -2 27 -8 33 -31 35 l-28 3 23 -35z"/>
<path d="M1860 1883 c0 -5 19 -27 42 -48 l41 -40 -25 45 c-23 40 -58 66 -58
43z"/>
<path d="M1808 1858 c-32 -11 -37 -28 -8 -28 11 0 45 -11 77 -26 l58 -25 -45
45 c-24 26 -47 46 -50 45 -3 0 -17 -5 -32 -11z"/>
<path d="M995 1843 c-77 -39 -103 -99 -104 -241 l-1 -83 26 20 c15 12 32 21
39 21 8 0 14 22 18 58 3 31 9 66 13 77 6 15 -5 10 -39 -18 -26 -21 -47 -34
-47 -28 0 5 22 28 48 50 36 31 52 54 66 96 11 30 17 57 15 59 -2 2 -17 -3 -34
-11z"/>
<path d="M1046 1838 c-3 -13 -6 -36 -6 -51 l0 -29 33 20 c17 11 57 28 87 37
l55 18 -35 13 c-19 7 -56 13 -81 13 -40 1 -48 -2 -53 -21z"/>
<path d="M1964 1847 c3 -10 6 -28 6 -40 0 -12 4 -28 8 -35 11 -17 42 -4 35 14
-4 11 -8 12 -20 3 -12 -11 -13 -9 -8 12 4 15 0 31 -10 44 -15 18 -16 18 -11 2z"/>
<path d="M2017 1839 c-6 -21 18 -69 33 -69 5 0 16 -3 26 -7 14 -5 12 4 -11 45
-31 57 -40 63 -48 31z"/>
<path d="M1358 1843 c-12 -3 -18 -14 -18 -35 0 -24 13 -43 63 -93 l63 -63 25
20 c13 10 57 42 97 69 64 44 73 54 70 77 l-3 27 -140 1 c-77 1 -148 0 -157 -3z
m268 -35 c1 -11 -14 -29 -42 -48 -25 -16 -47 -30 -50 -30 -2 0 -13 -9 -24 -20
-30 -30 -51 -25 -97 23 -42 44 -59 83 -39 91 6 3 65 4 130 3 105 -2 119 -4
122 -19z"/>
<path d="M1287 1831 c-15 -6 -16 -9 -5 -17 32 -25 38 -25 38 0 0 27 -4 29 -33
17z"/>
<path d="M1674 1824 c3 -9 6 -18 6 -20 0 -2 9 1 19 8 23 14 18 28 -11 28 -14
0 -18 -5 -14 -16z"/>
<path d="M1747 1818 c5 -7 22 -29 36 -49 l27 -36 61 13 c33 7 63 15 66 17 4 5
-173 67 -191 67 -5 0 -4 -6 1 -12z"/>
<path d="M1200 1813 c-8 -3 -48 -19 -87 -35 -72 -30 -73 -30 -72 -66 2 -68 24
-167 36 -167 7 0 29 33 48 74 20 41 56 103 80 138 44 62 43 73 -5 56z m-37
-56 c6 -15 -62 -138 -79 -144 -15 -5 -25 86 -13 109 10 18 55 47 75 48 7 0 14
-6 17 -13z"/>
<path d="M1216 1743 c-24 -38 -60 -100 -79 -140 l-36 -71 33 -25 33 -26 32 20
c17 10 65 33 107 51 59 24 73 35 68 47 -13 33 -44 137 -44 151 0 8 -16 25 -35
38 l-35 22 -44 -67z m83 13 c7 -8 21 -45 32 -83 l19 -68 -21 -15 c-53 -38
-144 -77 -164 -70 -40 15 -28 58 52 183 43 67 61 79 82 53z"/>
<path d="M1697 1796 c-16 -13 -17 -19 -6 -54 l11 -39 42 10 c22 5 43 11 45 13
6 5 -54 84 -64 83 -5 0 -18 -6 -28 -13z"/>
<path d="M1568 1707 c-84 -59 -109 -86 -70 -74 73 22 183 65 184 70 1 19 -12
67 -19 67 -5 0 -47 -29 -95 -63z"/>
<path d="M1915 1743 c-11 -2 -37 -9 -58 -14 l-37 -10 21 -41 22 -42 24 29 c43
53 65 85 56 84 -4 -1 -17 -3 -28 -6z"/>
<path d="M2001 1735 c-5 -45 6 -115 20 -115 18 0 17 18 -2 49 -11 18 -18 36
-15 38 3 3 13 -8 23 -26 10 -17 24 -31 31 -31 7 0 10 -4 7 -10 -5 -8 6 -42 45
-135 9 -20 9 -20 9 1 1 25 -24 113 -43 148 -7 14 -25 35 -40 47 -15 12 -25 24
-22 27 3 2 13 -1 23 -9 15 -12 16 -12 10 4 -4 10 -7 21 -7 23 0 12 -37 2 -39
-11z"/>
<path d="M2066 1718 c22 -43 21 -43 34 -18 14 26 -2 50 -31 50 -19 0 -19 -1
-3 -32z"/>
<path d="M1350 1732 c0 -8 7 -37 16 -65 9 -29 18 -58 20 -66 4 -11 8 -11 23 3
10 9 25 14 34 11 8 -4 18 -2 22 4 3 7 0 8 -10 5 -10 -4 -14 -2 -10 8 3 8 -16
34 -45 63 -27 27 -50 44 -50 37z"/>
<path d="M1007 1723 c-3 -5 -9 -34 -12 -64 -3 -30 -8 -64 -11 -75 -3 -19 2
-22 31 -26 28 -3 34 -1 30 10 -3 8 -10 46 -16 85 -12 77 -14 83 -22 70z"/>
<path d="M1912 1674 l-42 -53 17 -36 c27 -56 46 -42 61 45 6 41 11 80 10 86
-2 6 -22 -13 -46 -42z"/>
<path d="M1742 1699 l-32 -10 19 -37 c11 -20 28 -49 39 -64 l18 -28 32 33 32
33 -22 42 c-24 44 -32 46 -86 31z m60 -36 c12 -13 13 -24 6 -42 l-9 -25 -24
26 c-15 16 -22 33 -19 42 8 21 27 20 46 -1z"/>
<path d="M1971 1680 c-1 -19 -5 -52 -10 -72 l-9 -37 24 16 c27 17 28 30 9 88
l-13 40 -1 -35z"/>
<path d="M2104 1676 c-4 -10 -2 -22 5 -29 13 -13 15 -31 1 -22 -8 5 -5 -9 14
-65 2 -8 3 15 2 53 -3 70 -11 92 -22 63z"/>
<path d="M1590 1649 c-41 -16 -81 -29 -88 -29 -8 0 -1 -18 19 -46 17 -25 46
-74 63 -109 l32 -62 78 71 78 71 -39 67 c-21 38 -45 67 -53 67 -8 -1 -49 -14
-90 -30z m115 -31 c11 -18 20 -35 20 -38 0 -3 4 -11 9 -18 11 -19 -38 -74 -92
-104 -27 -14 -21 -19 -79 84 -35 64 -36 63 37 90 67 25 83 22 105 -14z"/>
<path d="M2032 1612 c-9 -6 -10 -26 -3 -81 5 -41 7 -80 4 -87 -7 -20 21 -17
48 4 l22 19 -17 54 c-25 77 -39 100 -54 91z"/>
<path d="M1440 1594 c-19 -8 -36 -16 -38 -18 -5 -5 44 -101 84 -164 l34 -52
37 15 c20 9 39 17 41 19 7 8 -111 217 -121 216 -1 -1 -18 -8 -37 -16z m110
-131 c10 -20 16 -43 13 -50 -7 -19 -43 -16 -60 5 -15 18 -73 128 -73 137 0 3
10 9 22 14 19 7 27 2 51 -30 16 -22 37 -56 47 -76z"/>
<path d="M1825 1580 l-29 -30 20 -21 c18 -17 24 -18 47 -8 15 7 27 15 27 19 0
8 -30 70 -34 70 -1 0 -15 -14 -31 -30z"/>
<path d="M1968 1565 c-31 -29 -45 -83 -29 -113 10 -19 66 -40 77 -29 8 7 -7
167 -15 167 -3 0 -18 -11 -33 -25z m28 -79 c-3 -11 -5 -25 -5 -31 -1 -5 -8 0
-15 11 -19 26 -10 70 10 53 7 -6 12 -21 10 -33z"/>
<path d="M866 1538 c9 -59 14 -60 14 -5 0 26 -5 47 -10 47 -6 0 -8 -16 -4 -42z"/>
<path d="M1307 1498 c-43 -38 -77 -74 -77 -78 0 -5 14 -29 30 -53 17 -25 30
-50 30 -55 0 -25 27 -23 119 8 l98 33 -35 51 c-19 28 -47 76 -62 108 l-27 56
-76 -70z m116 -44 c21 -36 37 -72 35 -81 -3 -14 -33 -28 -125 -57 -16 -5 -23
-3 -23 6 0 8 -9 24 -21 36 -11 12 -18 26 -14 31 3 5 0 11 -6 13 -21 7 1 42 49
80 26 20 52 37 57 37 6 0 27 -29 48 -65z"/>
<path d="M1265 1518 c-44 -22 -82 -42 -84 -44 -3 -3 4 -13 15 -24 19 -18 20
-18 87 46 37 35 66 64 65 64 -2 -1 -39 -19 -83 -42z"/>
<path d="M980 1528 c0 -14 3 -53 6 -86 l7 -61 29 17 c34 20 53 77 38 116 -5
14 -15 26 -22 26 -7 0 -23 3 -35 6 -19 5 -23 2 -23 -18z m60 -55 c0 -8 -4 -11
-10 -8 -5 3 -7 0 -4 -8 3 -8 1 -18 -4 -21 -11 -6 -25 51 -16 66 8 12 34 -10
34 -29z"/>
<path d="M2143 1495 c0 -33 2 -45 4 -27 2 18 2 45 0 60 -2 15 -4 0 -4 -33z"/>
<path d="M919 1521 c-21 -17 -22 -21 -11 -57 22 -71 46 -114 59 -106 9 6 10
25 2 81 -6 40 -8 79 -5 87 8 20 -18 17 -45 -5z"/>
<path d="M1721 1479 l-64 -59 79 36 c44 20 81 38 83 40 3 3 -4 13 -15 23 -19
19 -20 18 -83 -40z"/>
<path d="M846 1503 c-3 -10 -1 -34 3 -53 9 -34 9 -33 10 18 1 53 -4 66 -13 35z"/>
<path d="M1867 1506 c-17 -13 -17 -15 5 -30 32 -22 40 -20 36 11 -4 31 -16 37
-41 19z"/>
<path d="M1090 1486 c0 -32 15 -41 41 -23 l20 15 -23 16 c-31 22 -38 20 -38
-8z"/>
<path d="M1727 1436 c-83 -39 -106 -54 -101 -66 4 -8 16 -49 28 -90 11 -41 27
-81 36 -88 44 -36 46 -35 93 36 51 76 107 185 106 204 0 7 -12 22 -27 34 l-27
20 -108 -50z m130 -1 c3 -9 -2 -35 -11 -60 -20 -51 -94 -165 -113 -172 -23 -9
-43 18 -64 89 -25 82 -23 85 65 128 68 33 113 38 123 15z"/>
<path d="M881 1462 c-1 -36 33 -142 44 -138 14 4 11 20 -19 96 -15 39 -25 56
-25 42z"/>
<path d="M2120 1437 c0 -26 4 -47 9 -47 8 0 3 79 -5 89 -2 2 -4 -17 -4 -42z"/>
<path d="M1133 1448 c-27 -13 -28 -19 -7 -60 l16 -31 31 31 c30 31 30 32 12
52 -20 23 -21 23 -52 8z"/>
<path d="M2081 1430 c-13 -11 -29 -20 -37 -20 -9 0 -14 -12 -14 -32 0 -18 -5
-51 -10 -73 -5 -22 -8 -41 -6 -42 2 -2 24 17 50 42 42 42 46 50 46 95 0 28 -1
50 -2 50 -2 -1 -14 -10 -27 -20z"/>
<path d="M1877 1358 c-19 -40 -55 -103 -80 -140 -26 -38 -41 -68 -34 -68 12 0
76 22 155 55 47 19 48 22 32 125 -20 125 -27 127 -73 28z m47 -14 c9 -24 7
-83 -4 -104 -9 -16 -76 -47 -90 -41 -10 4 2 37 37 99 36 64 47 73 57 46z"/>
<path d="M1067 1413 c-10 -17 -27 -157 -21 -175 3 -11 12 -17 22 -14 9 2 38 9
64 16 l47 12 -20 40 -21 41 -43 -49 c-54 -60 -60 -46 -7 16 l39 44 -15 38
c-14 35 -34 49 -45 31z"/>
<path d="M1950 1410 c0 -3 4 -20 10 -38 5 -19 10 -56 11 -83 3 -50 13 -64 24
-30 3 10 9 48 13 84 l8 65 -33 4 c-18 2 -33 1 -33 -2z"/>
<path d="M1181 1376 l-34 -35 27 -45 26 -45 45 15 45 16 -20 36 c-10 21 -27
49 -38 64 l-18 28 -33 -34z m57 -41 c23 -50 12 -67 -29 -45 -26 14 -27 70 -1
70 11 0 24 -11 30 -25z"/>
<path d="M1015 1376 c-17 -13 -18 -17 -5 -72 l14 -59 7 70 c4 38 7 71 5 72 -1
2 -11 -3 -21 -11z"/>
<path d="M1590 1365 c-7 -9 -21 -13 -31 -10 -9 3 -20 1 -24 -4 -3 -7 0 -8 10
-5 10 4 14 2 10 -8 -5 -14 83 -114 92 -104 5 4 -35 146 -41 146 -2 0 -9 -7
-16 -15z"/>
<path d="M966 1341 c-4 -6 1 -22 10 -36 9 -14 14 -28 11 -31 -3 -3 -13 6 -22
20 -10 14 -21 26 -26 26 -14 0 -10 -26 6 -40 8 -7 12 -16 9 -21 -6 -10 13 -49
24 -48 19 3 26 -2 13 -10 -8 -5 -10 -14 -6 -21 6 -10 11 -9 21 5 11 14 11 22
2 33 -15 17 -22 55 -9 48 9 -6 -10 68 -21 79 -3 3 -9 2 -12 -4z"/>
<path d="M870 1325 c0 -11 4 -27 10 -35 8 -12 10 -12 16 4 4 11 0 24 -10 34
-15 15 -16 15 -16 -3z"/>
<path d="M1410 1304 c-52 -18 -94 -36 -94 -39 1 -3 4 -19 8 -36 3 -17 10 -29
16 -27 19 6 180 123 180 131 0 10 -4 9 -110 -29z"/>
<path d="M1473 1272 c-32 -24 -76 -54 -99 -68 -36 -21 -40 -27 -36 -54 l4 -30
143 0 c79 0 150 3 159 6 10 4 16 18 16 35 0 23 -14 43 -64 92 l-64 63 -59 -44z
m110 -37 c24 -25 47 -54 50 -65 7 -26 -28 -32 -158 -28 -125 4 -134 18 -49 75
70 46 97 63 105 63 4 0 27 -20 52 -45z"/>
<path d="M2056 1274 c-45 -40 -86 -111 -86 -152 0 -18 73 21 98 53 20 25 47
116 40 134 -1 5 -25 -11 -52 -35z"/>
<path d="M902 1278 c-7 -7 -12 -17 -12 -24 0 -16 26 -36 42 -32 11 2 11 9 -2
36 -12 25 -18 30 -28 20z"/>
<path d="M1250 1253 c-8 -2 -21 -6 -28 -9 -10 -3 -6 -15 15 -44 30 -43 39 -46
65 -26 15 11 16 18 6 49 -11 36 -23 42 -58 30z"/>
<path d="M1127 1225 c-32 -7 -60 -15 -63 -17 -4 -5 173 -68 188 -68 5 0 -8 23
-28 50 -20 28 -37 49 -37 49 -1 -1 -28 -7 -60 -14z"/>
<path d="M936 1161 c25 -47 29 -51 41 -35 10 13 9 22 -3 45 -8 16 -19 29 -23
29 -5 0 -17 3 -27 7 -14 5 -11 -4 12 -46z"/>
<path d="M1935 1197 c-11 -8 -49 -25 -84 -38 l-64 -23 34 -12 c19 -7 53 -13
76 -13 48 -1 66 19 61 70 -3 27 -4 29 -23 16z"/>
<path d="M1011 1172 c-7 -13 -5 -24 8 -40 16 -22 17 -22 13 18 -5 45 -7 48
-21 22z"/>
<path d="M1066 1175 c-5 -13 40 -95 53 -95 22 0 18 17 -11 47 -40 41 -25 44
17 3 28 -27 35 -29 58 -21 35 14 34 27 -3 34 -16 4 -48 15 -69 26 -30 14 -41
15 -45 6z"/>
<path d="M1676 1163 c9 -36 7 -35 34 -25 23 8 23 9 -9 31 l-32 23 7 -29z"/>
<path d="M1045 1135 c10 -53 22 -75 39 -69 11 4 8 15 -12 52 -34 63 -35 63
-27 17z"/>
<path d="M1295 1156 c-18 -13 -19 -15 -3 -21 25 -10 36 -3 29 18 -6 16 -9 16
-26 3z"/>
<path d="M990 1102 c0 -33 15 -47 44 -40 11 2 8 11 -14 38 l-29 35 -1 -33z"/>
<path d="M1222 1115 c-47 -25 -45 -31 15 -69 53 -33 59 -35 70 -19 17 23 16
44 -5 69 -24 28 -52 35 -80 19z"/>
<path d="M1702 1094 c-19 -21 -32 -47 -32 -62 0 -15 -9 -46 -20 -70 l-20 -43
48 6 c145 19 149 21 202 93 l49 66 -59 12 c-32 7 -67 17 -79 23 -34 19 -56 12
-89 -25z m151 -15 c26 -15 21 -33 -21 -71 -39 -35 -119 -65 -146 -55 -14 5
-14 12 -1 53 8 26 24 58 37 71 20 19 30 22 68 17 25 -3 53 -10 63 -15z"/>
<path d="M2025 1121 c-3 -5 -19 -12 -35 -16 -17 -4 -30 -13 -30 -21 0 -8 -7
-28 -15 -44 -22 -42 -6 -37 41 13 55 57 69 77 56 77 -6 0 -13 -4 -17 -9z"/>
<path d="M1340 1088 c0 -10 33 -43 74 -75 41 -32 73 -59 71 -62 -6 -5 -51 24
-106 70 l-45 38 -11 -29 -11 -29 80 -31 c59 -23 87 -29 104 -23 44 15 164 115
164 138 0 19 -5 20 -160 20 -144 0 -160 -2 -160 -17z m264 -30 c-19 -37 -66
-68 -102 -68 -22 0 -42 11 -72 40 -23 22 -39 43 -37 47 3 5 55 8 115 8 l110 0
-14 -27z"/>
<path d="M1133 1072 c-9 -6 1 -24 37 -65 52 -58 65 -61 102 -30 15 14 11 19
-49 59 -71 47 -72 48 -90 36z"/>
<path d="M1905 1026 c-40 -54 -42 -60 -15 -46 19 10 57 77 48 85 -2 2 -16 -16
-33 -39z"/>
<path d="M1080 1052 c0 -13 95 -102 108 -102 7 0 -8 25 -35 55 -43 49 -73 69
-73 47z"/>
<path d="M1040 1025 c27 -29 32 -28 23 3 -3 14 -13 22 -26 22 -20 0 -20 -1 3
-25z"/>
<path d="M1608 1003 c-25 -21 -54 -43 -64 -49 -25 -15 -17 -22 31 -26 35 -3
41 0 53 25 13 27 33 87 29 87 -1 0 -23 -17 -49 -37z"/>
<path d="M1273 961 l-32 -27 40 -26 c34 -22 45 -25 80 -17 22 5 54 15 72 22
l32 14 -55 18 c-30 10 -66 23 -80 30 -22 12 -29 10 -57 -14z m86 -25 c9 -11 6
-14 -16 -14 -33 0 -45 6 -38 19 9 14 41 11 54 -5z"/>
<path d="M1845 944 c-16 -8 -36 -21 -44 -29 -25 -24 21 -7 55 20 34 28 31 31
-11 9z"/>
<path d="M1160 927 c41 -28 74 -41 65 -27 -9 15 2 12 31 -6 13 -9 27 -15 30
-12 4 5 -70 58 -82 58 -4 0 -1 -7 6 -15 18 -21 3 -19 -27 5 -14 11 -33 20 -42
20 -9 0 -1 -10 19 -23z"/>
<path d="M1760 920 c-14 -4 -52 -9 -85 -9 -75 -2 -56 -21 21 -21 37 0 59 6 75
20 26 21 26 22 -11 10z"/>
<path d="M1468 910 c-9 -6 -40 -16 -70 -24 l-53 -14 30 -13 c17 -6 57 -13 90
-13 49 -1 67 4 94 23 l34 25 -34 12 c-42 15 -69 16 -91 4z"/>
<path d="M1595 879 c-4 -6 -21 -20 -39 -31 l-31 -19 45 6 c25 4 63 11 85 17
33 9 37 12 20 18 -45 16 -74 20 -80 9z"/>
<path d="M2416 1988 c-96 -13 -130 -66 -91 -142 21 -39 19 -49 -7 -35 -43 23
-101 29 -120 12 -44 -40 0 -93 92 -113 33 -7 64 -18 69 -24 4 -6 11 -31 15
-55 6 -42 6 -43 -16 -37 -59 18 -98 18 -123 2 -34 -23 -31 -39 13 -69 20 -15
49 -42 64 -61 24 -29 25 -36 13 -46 -22 -19 -18 -59 10 -96 26 -34 27 -64 3
-127 -8 -20 -8 -34 1 -50 9 -17 9 -34 0 -72 -19 -81 -17 -142 6 -164 26 -26
43 -15 48 30 4 39 34 88 55 89 6 0 12 4 12 9 0 6 15 11 33 13 41 4 47 35 16
78 l-23 30 22 16 c12 8 22 24 22 35 0 10 5 19 10 19 6 0 10 -10 10 -23 0 -32
23 -62 43 -54 10 4 19 23 23 46 5 29 12 42 28 47 20 6 36 22 36 35 0 4 -16 24
-35 45 -19 22 -35 44 -35 51 0 18 -48 105 -71 129 -13 14 -17 24 -10 29 18 11
12 53 -9 68 -16 11 -19 21 -15 39 5 21 -1 31 -35 58 -36 28 -40 36 -35 64 5
22 -1 44 -19 78 -29 54 -26 75 12 85 30 7 128 -23 156 -49 30 -28 14 -50 -31
-42 -41 7 -41 7 -60 5 -21 -2 -15 -39 9 -55 15 -10 45 -16 85 -16 55 0 64 3
78 24 9 13 15 40 13 61 -3 50 -58 99 -135 121 -32 9 -60 17 -63 18 -3 1 -32
-1 -64 -6z m159 -49 c74 -37 106 -97 69 -133 -20 -20 -113 -21 -140 -2 -25 19
-9 34 17 17 22 -13 90 -18 108 -7 6 4 11 15 11 25 0 72 -179 139 -260 98 -37
-18 -36 -41 4 -93 42 -54 44 -66 15 -93 l-21 -19 56 -38 c30 -22 55 -42 56
-46 0 -3 -19 -4 -42 0 -40 5 -42 4 -29 -12 8 -10 37 -29 64 -43 28 -14 46 -28
41 -33 -5 -5 -36 -10 -69 -12 l-60 -3 76 -37 c72 -35 96 -57 81 -72 -3 -4 -14
3 -23 15 -14 19 -22 21 -63 15 l-46 -7 37 -46 c31 -38 83 -73 108 -73 3 0 5
16 5 35 0 19 5 35 10 35 6 0 10 -19 10 -42 0 -40 3 -45 40 -66 22 -13 38 -27
35 -32 -3 -5 -22 0 -41 12 l-36 21 3 -66 c2 -36 1 -69 -3 -72 -8 -8 -17 39
-20 105 l-3 45 -83 33 c-46 18 -95 32 -110 30 -25 -3 -23 -6 43 -62 83 -70
105 -100 87 -118 -18 -18 -43 0 -65 45 -20 39 -37 41 -37 4 0 -30 53 -111 90
-138 16 -13 30 -29 30 -36 0 -19 -2 -18 -51 28 -66 61 -86 68 -50 18 48 -65
41 -80 -23 -53 -15 6 -18 4 -14 -7 3 -8 9 -22 13 -32 6 -14 2 -20 -15 -24 -22
-6 -24 -27 -5 -75 4 -11 3 -18 -4 -18 -14 0 -31 42 -31 77 0 16 7 27 19 30 17
4 18 9 9 34 -13 38 -5 46 32 32 35 -13 34 -9 -18 55 -38 46 -37 62 3 44 28
-13 31 -6 10 22 -20 26 -19 75 0 82 12 5 4 17 -31 49 -56 52 -51 69 15 62 25
-2 55 -8 65 -13 15 -6 12 2 -13 33 -21 26 -44 43 -63 47 -39 8 -58 23 -51 42
7 20 30 17 64 -7 17 -12 40 -19 56 -17 26 3 25 5 -24 31 -31 16 -68 27 -92 27
-22 0 -52 5 -67 10 -25 10 -26 12 -12 26 14 14 21 14 70 -1 41 -13 70 -16 112
-11 l57 8 -45 29 c-50 31 -58 54 -25 64 35 11 -47 64 -117 75 -67 11 -105 40
-85 64 15 18 59 7 112 -30 31 -21 41 -24 58 -14 12 6 21 14 21 18 0 4 -16 30
-36 59 -44 63 -42 91 6 116 47 24 141 18 205 -14z m-45 -651 c23 -25 26 -38 6
-38 -12 0 -46 40 -46 55 0 12 21 3 40 -17z"/>
<path d="M2220 1792 c0 -11 45 -32 68 -32 14 0 13 2 -3 14 -27 18 -65 29 -65
18z"/>
<path d="M535 1690 c-4 -6 -4 -24 0 -40 10 -46 -49 -130 -93 -130 -19 0 -14
-4 76 -52 69 -37 73 -35 23 11 -48 44 -47 66 2 55 l31 -6 -17 25 c-16 25 -16
27 4 41 l22 15 -22 37 c-25 43 -18 60 10 24 29 -38 35 -71 14 -86 -16 -12 -16
-14 -1 -36 24 -34 20 -41 -19 -35 -19 3 -35 3 -35 -1 1 -4 23 -24 50 -45 66
-50 67 -71 4 -47 l-27 11 17 -26 c21 -32 12 -48 -23 -42 -26 5 -26 5 7 -24 17
-16 32 -35 32 -43 0 -7 7 -19 15 -26 17 -14 20 -46 5 -55 -18 -11 -11 -20 40
-50 27 -16 48 -31 45 -33 -2 -2 11 -25 30 -50 39 -50 43 -72 17 -94 -25 -23
-84 -31 -196 -29 -68 2 -96 -1 -92 -8 4 -6 3 -11 -3 -11 -11 0 -85 114 -95
148 -14 42 9 21 44 -41 l35 -62 88 -5 c48 -3 87 -4 87 -2 0 2 -14 23 -30 48
-19 27 -26 44 -18 44 7 0 26 -21 42 -46 28 -44 31 -45 65 -39 57 10 71 15 71
28 0 26 -70 111 -122 149 l-28 19 -31 -21 c-37 -27 -54 -17 -19 11 14 12 20
22 14 25 -6 3 -20 11 -30 19 -28 20 -9 30 21 11 32 -21 58 -14 53 16 -2 13
-18 29 -43 42 -53 27 -68 43 -62 65 3 13 -3 23 -19 32 -24 12 -32 29 -15 29 5
0 25 -7 44 -15 20 -8 44 -15 52 -15 28 0 -25 58 -83 91 -57 32 -63 31 -32 -8
18 -23 19 -28 6 -42 -13 -14 -13 -22 5 -60 10 -24 30 -57 44 -73 18 -21 23
-34 16 -42 -6 -7 -7 -32 -3 -61 l7 -50 47 0 c41 0 51 -5 82 -37 40 -42 58 -73
49 -82 -14 -13 -34 -5 -70 29 -41 39 -77 43 -79 10 -3 -52 -4 -55 -29 -55 -40
0 -69 19 -98 65 -39 60 -51 69 -71 50 -17 -18 -15 -29 22 -103 35 -69 64 -97
89 -84 10 5 47 8 83 5 36 -2 74 -4 85 -4 35 -2 129 30 142 48 7 9 13 29 13 43
0 33 -51 116 -96 155 -26 23 -36 41 -40 69 -2 21 -14 52 -25 67 l-21 29 26 46
c25 44 25 46 8 72 -13 20 -17 48 -17 112 0 70 -3 89 -20 108 -20 23 -49 29
-60 12z"/>
<path d="M510 1340 c0 -5 15 -17 33 -26 l32 -17 -24 27 c-25 27 -41 33 -41 16z"/>
<path d="M1450 615 c-8 -10 -17 -12 -24 -6 -16 14 -126 -3 -137 -20 -13 -20
-11 -27 10 -48 16 -16 30 -19 67 -15 26 2 52 8 59 14 7 6 15 6 22 -1 7 -7 53
-11 113 -11 120 -1 139 9 124 64 l-10 33 -105 3 c-86 2 -108 0 -119 -13z m46
-26 c0 -14 3 -30 8 -37 5 -8 -2 -12 -25 -12 l-32 0 21 23 c28 30 28 40 0 31
-21 -6 -21 -5 -9 10 19 22 36 15 37 -15z m59 -10 c0 -24 -5 -35 -17 -37 -22
-4 -35 42 -18 63 20 24 35 12 35 -26z m55 26 c10 -12 10 -18 0 -30 -9 -10 -9
-15 -1 -15 6 0 11 -4 11 -10 0 -5 -11 -10 -25 -10 -28 0 -32 12 -10 30 8 7 15
17 15 22 0 6 -7 8 -15 4 -15 -5 -20 5 -8 17 10 11 19 8 33 -8z m57 1 c-3 -7
-1 -18 4 -23 14 -14 0 -43 -22 -43 -10 0 -19 5 -19 10 0 6 7 10 15 10 8 0 15
5 15 10 0 6 -6 10 -13 10 -7 0 -13 9 -14 20 -1 14 4 20 19 20 13 0 18 -5 15
-14z m-247 -26 c-4 -3 -10 -14 -13 -25 -4 -18 -5 -18 -6 3 -1 14 -7 22 -18 21
-11 0 -13 -3 -5 -6 19 -8 15 -35 -5 -31 -10 2 -17 11 -15 19 1 9 -3 8 -12 -5
-18 -22 -46 -15 -46 13 0 16 7 19 47 19 26 0 49 5 51 11 2 7 8 6 17 -2 7 -7 9
-14 5 -17z"/>
</g>
</svg>
